<svg width="21" height="18" viewBox="0 0 21 18" fill="none" xmlns="http://www.w3.org/2000/svg">
<path d="M2.78125 0.15625H0.71875C0.332031 0.15625 0.03125 0.5 0.03125 0.84375V2.90625C0.03125 3.29297 0.332031 3.59375 0.71875 3.59375H2.78125C3.125 3.59375 3.46875 3.29297 3.46875 2.90625V0.84375C3.46875 0.5 3.125 0.15625 2.78125 0.15625ZM2.78125 7.03125H0.71875C0.332031 7.03125 0.03125 7.375 0.03125 7.71875V9.78125C0.03125 10.168 0.332031 10.4688 0.71875 10.4688H2.78125C3.125 10.4688 3.46875 10.168 3.46875 9.78125V7.71875C3.46875 7.375 3.125 7.03125 2.78125 7.03125ZM2.78125 13.9062H0.71875C0.332031 13.9062 0.03125 14.25 0.03125 14.5938V16.6562C0.03125 17.043 0.332031 17.3438 0.71875 17.3438H2.78125C3.125 17.3438 3.46875 17.043 3.46875 16.6562V14.5938C3.46875 14.25 3.125 13.9062 2.78125 13.9062ZM20.6562 14.9375H6.21875C6.00391 14.9375 5.875 15.1094 5.875 15.2812V15.9688C5.875 16.1836 6.00391 16.3125 6.21875 16.3125H20.6562C20.8281 16.3125 21 16.1836 21 15.9688V15.2812C21 15.1094 20.8281 14.9375 20.6562 14.9375ZM20.6562 1.1875H6.21875C6.00391 1.1875 5.875 1.35938 5.875 1.53125V2.21875C5.875 2.43359 6.00391 2.5625 6.21875 2.5625H20.6562C20.8281 2.5625 21 2.43359 21 2.21875V1.53125C21 1.35938 20.8281 1.1875 20.6562 1.1875ZM20.6562 8.0625H6.21875C6.00391 8.0625 5.875 8.23438 5.875 8.40625V9.09375C5.875 9.30859 6.00391 9.4375 6.21875 9.4375H20.6562C20.8281 9.4375 21 9.30859 21 9.09375V8.40625C21 8.23438 20.8281 8.0625 20.6562 8.0625Z" fill="#C3CBD6"/>
</svg>
