<svg width="21" height="19" viewBox="0 0 21 19" fill="none" xmlns="http://www.w3.org/2000/svg">
<path d="M19.7461 2.5H4.91016L4.59375 0.953125C4.52344 0.566406 4.17188 0.25 3.78516 0.25H0.796875C0.550781 0.25 0.375 0.460938 0.375 0.671875V0.953125C0.375 1.19922 0.550781 1.375 0.796875 1.375H3.53906L6 14.4883C5.64844 14.9102 5.4375 15.4375 5.4375 16C5.4375 17.2656 6.42188 18.25 7.6875 18.25C8.91797 18.25 9.9375 17.2656 9.9375 16C9.9375 15.6133 9.79688 15.2266 9.62109 14.875H14.7188C14.543 15.2266 14.4375 15.6133 14.4375 16C14.4375 17.2656 15.4219 18.25 16.6875 18.25C17.918 18.25 18.9375 17.2656 18.9375 16C18.9375 15.4023 18.6562 14.8047 18.2344 14.418C18.1641 14.0312 17.8125 13.75 17.4258 13.75H7.01953L6.59766 11.5H18.2344C18.6562 11.5 18.9727 11.2539 19.0781 10.832L20.5898 3.51953C20.6953 2.99219 20.3086 2.5 19.7461 2.5ZM8.8125 16C8.8125 16.6328 8.28516 17.125 7.6875 17.125C7.05469 17.125 6.5625 16.6328 6.5625 16C6.5625 15.4023 7.05469 14.875 7.6875 14.875C8.28516 14.875 8.8125 15.4023 8.8125 16ZM16.6875 17.125C16.0547 17.125 15.5625 16.6328 15.5625 16C15.5625 15.4023 16.0547 14.875 16.6875 14.875C17.2852 14.875 17.8125 15.4023 17.8125 16C17.8125 16.6328 17.2852 17.125 16.6875 17.125ZM18.0234 10.375H6.38672L5.12109 3.625H19.4297L18.0234 10.375Z" fill="black"/>
</svg>
