<svg width="13" height="13" viewBox="0 0 13 13" fill="none" xmlns="http://www.w3.org/2000/svg">
<path d="M11.6484 5.79688L6.70312 0.851562C6.49219 0.640625 6.21094 0.5 5.90625 0.5H1.125C0.492188 0.5 0 1.01562 0 1.625V6.42969C0 6.73438 0.117188 7.01562 0.328125 7.22656L5.27344 12.1719C5.71875 12.6172 6.44531 12.6172 6.86719 12.1719L11.6484 7.39062C12.0938 6.96875 12.0938 6.24219 11.6484 5.79688ZM11.1328 6.875L6.35156 11.6562C6.1875 11.7969 5.95312 11.7969 5.8125 11.6562L0.84375 6.6875C0.773438 6.61719 0.726562 6.52344 0.726562 6.42969H0.75V1.625C0.75 1.4375 0.914062 1.25 1.125 1.25H5.90625C6 1.25 6.09375 1.29688 6.16406 1.36719L11.1328 6.33594C11.2734 6.47656 11.2734 6.71094 11.1328 6.875ZM3.375 3.40625C3.63281 3.40625 3.84375 3.61719 3.84375 3.875C3.84375 4.15625 3.63281 4.34375 3.375 4.34375C3.09375 4.34375 2.90625 4.15625 2.90625 3.875C2.90625 3.61719 3.09375 3.40625 3.375 3.40625ZM3.375 2.75C2.74219 2.75 2.25 3.26562 2.25 3.875C2.25 4.50781 2.74219 5 3.375 5C3.98438 5 4.5 4.50781 4.5 3.875C4.5 3.26562 3.98438 2.75 3.375 2.75Z" fill="black"/>
</svg>
