<svg width="11" height="13" viewBox="0 0 11 13" fill="none" xmlns="http://www.w3.org/2000/svg">
<path d="M10.5625 2H8.125L7.32812 0.96875C7.11719 0.6875 6.78906 0.5 6.4375 0.5H4.5625C4.1875 0.5 3.85938 0.6875 3.64844 0.96875L2.875 2H0.4375C0.320312 2 0.25 2.09375 0.25 2.1875V2.5625C0.25 2.67969 0.320312 2.75 0.4375 2.75H0.859375L1.65625 11.4922C1.70312 12.0547 2.17188 12.5 2.75781 12.5H8.21875C8.80469 12.5 9.27344 12.0547 9.32031 11.4922L10.1172 2.75H10.5625C10.6562 2.75 10.75 2.67969 10.75 2.5625V2.1875C10.75 2.09375 10.6562 2 10.5625 2ZM4.25781 1.41406C4.32812 1.32031 4.42188 1.27344 4.5625 1.25H6.4375C6.55469 1.27344 6.64844 1.32031 6.71875 1.41406L7.1875 2H3.8125L4.25781 1.41406ZM8.59375 11.4219C8.57031 11.6094 8.40625 11.75 8.21875 11.75H2.75781C2.57031 11.75 2.40625 11.6094 2.40625 11.4219L1.63281 2.75H9.36719L8.59375 11.4219Z" fill="black"/>
</svg>
