<svg width="144" height="57" viewBox="0 0 144 57" fill="none" xmlns="http://www.w3.org/2000/svg">
<g clip-path="url(#clip0_1839_1897)">
<path d="M40.2135 48.068C37.6743 51.1567 34.3308 53.4744 30.5567 54.7618C26.7827 56.0493 22.7269 56.2558 18.8428 55.3583C24.3563 57.3292 30.3414 57.5359 35.9764 55.9499C41.6114 54.3639 46.6201 51.0631 50.315 46.5005C50.5984 46.1528 50.8818 45.7937 51.1426 45.4346C47.8248 47.3448 44.0319 48.2587 40.2135 48.068Z" fill="#3F6B9D"/>
<path d="M49.9672 10.077C48.8419 8.73971 47.5951 7.5108 46.2429 6.40623C41.0638 2.1609 34.5596 -0.108022 27.8786 2.62137e-05C21.1975 0.108074 14.7693 2.58614 9.72862 6.99675C4.68797 11.4074 1.35909 17.4669 0.329657 24.1056C-0.699776 30.7443 0.636437 37.5352 4.1024 43.2795C2.45083 39.6505 1.83073 35.6325 2.31084 31.6708C2.79094 27.7092 4.35249 23.9585 6.82245 20.8345C9.29241 17.7105 12.5743 15.3351 16.3045 13.9716C20.0347 12.6081 24.0675 12.3097 27.956 13.1094C30.9112 10.4642 34.5826 8.76331 38.5024 8.22329C42.4223 7.68327 46.4133 8.32857 49.9672 10.077Z" fill="#00467F"/>
<path d="M20.5719 45.03C18.4221 43.2659 16.7149 41.0182 15.5883 38.4683C14.4616 35.9185 13.947 33.1379 14.0861 30.3513C14.2251 27.5646 15.0139 24.8498 16.3887 22.4261C17.7635 20.0025 19.6858 17.9378 22.0004 16.3989C19.331 16.6726 16.7585 17.5535 14.4777 18.9748C12.1969 20.3962 10.2677 22.3207 8.83602 24.6027C7.40439 26.8848 6.50791 29.4644 6.21448 32.1464C5.92104 34.8283 6.23833 37.5422 7.14233 40.0826C8.04633 42.623 9.51333 44.9233 11.4322 46.8092C13.3512 48.6952 15.6717 50.1174 18.2181 50.9681C20.7645 51.8188 23.47 52.0757 26.1298 51.7195C28.7896 51.3632 31.3339 50.403 33.5701 48.9117C31.2558 49.1626 28.915 48.9486 26.6837 48.2823C24.4523 47.6159 22.3748 46.5104 20.5719 45.03Z" fill="#839BC1"/>
<path d="M68.7607 34.8955V33.3109L70.0135 33.1741C70.2913 33.1342 70.3309 33.0715 70.3309 32.7751V22.5151C70.3309 22.213 70.2913 22.1332 70.0135 22.1104L68.7607 21.9736V20.4175H74.9962V21.9964L73.7548 22.156C73.46 22.156 73.4374 22.2586 73.4374 22.5379V32.7523H76.0959C76.1873 32.76 76.2784 32.7343 76.3524 32.6798C76.4263 32.6254 76.4782 32.5458 76.4984 32.4559L76.9632 31.1791H79.3044L77.9949 34.8955H68.7607Z" fill="#00467F"/>
<path d="M51.7375 34.0346C50.5641 34.7699 48.5744 35.1347 46.7662 35.1347C41.8175 35.1347 39.7881 32.2334 39.7881 27.5936C39.7881 23.3357 42.2313 20.1836 47.1573 20.1836C48.7424 20.1549 50.307 20.5482 51.6922 21.3236V25.2452L49.5778 25.0628L49.2263 23.102C49.2185 23.0159 49.1835 22.9346 49.1263 22.87C49.0692 22.8053 48.993 22.7608 48.9089 22.7429C48.306 22.5819 47.6847 22.5014 47.0609 22.5035C44.5327 22.5035 42.9228 24.2135 42.9228 27.6335C42.9228 31.1732 44.4534 32.8946 46.8909 32.8946C47.5627 32.8954 48.2316 32.8072 48.8806 32.6324C49.1186 32.5754 49.181 32.5127 49.2377 32.2106L49.5381 30.3524H51.6638L51.7375 34.0346Z" fill="#00467F"/>
<path d="M53.7891 27.6964C53.7891 23.4157 56.1756 20.1553 60.9089 20.1553C65.6422 20.1553 67.6488 23.4157 67.6488 27.4342C67.6488 32.131 65.3814 35.1349 60.6311 35.1349C55.8808 35.1349 53.7891 32.0341 53.7891 27.6964ZM64.4858 27.6166C64.4858 24.1567 63.1139 22.6747 60.8692 22.6747C58.6244 22.6747 56.9692 24.1966 56.9692 27.6337C56.9692 31.2361 58.4657 32.6725 60.7501 32.6725C63.0346 32.6725 64.4858 31.2931 64.4858 27.6166Z" fill="#00467F"/>
<path d="M87.2573 34.8955V33.3337L88.8898 33.1513L88.1699 31.0708H83.2439L82.5467 33.1513L84.1169 33.3337V34.8955H79.1738L84.2756 20.4175H87.7958L92.1323 32.7751C92.2116 33.0145 92.3704 33.0544 92.6084 33.1114L93.5211 33.3337V34.8955H87.2573ZM85.8061 23.4955H85.6871L83.8561 28.9333H87.5747L85.8061 23.4955Z" fill="#00467F"/>
<path d="M105.782 34.8955V33.3337L107.415 33.1912C107.693 33.1513 107.732 33.0715 107.732 32.7922V25.1941H107.653L104.819 32.0341H101.576L98.7418 25.1941H98.6454V32.7751C98.6454 33.0943 98.6454 33.1342 98.9628 33.1741L100.663 33.3337V34.8955H94.666V33.3337L95.9188 33.1912C96.1965 33.1513 96.2362 33.0943 96.2362 32.7922V22.5322C96.2362 22.2301 96.1965 22.1674 95.9188 22.1275L94.666 21.9964V20.4175H99.9945L103.458 29.4748H103.537L107.137 20.4175H112.307V21.9736L110.98 22.1332C110.68 22.1731 110.657 22.2187 110.657 22.5151V32.7751C110.657 33.0373 110.72 33.1171 110.98 33.157L112.307 33.3166V34.8784L105.782 34.8955Z" fill="#00467F"/>
<path d="M125.373 34.0346C124.2 34.7528 122.21 35.1347 120.402 35.1347C115.448 35.1347 113.424 32.2334 113.424 27.5936C113.424 23.3357 115.867 20.1836 120.793 20.1836C122.378 20.1549 123.943 20.5482 125.328 21.3236V25.2452L123.214 25.0628L122.856 23.102C122.849 23.0159 122.814 22.9346 122.756 22.87C122.699 22.8053 122.623 22.7608 122.539 22.7429C121.936 22.5815 121.315 22.501 120.691 22.5035C118.168 22.5035 116.559 24.2135 116.559 27.6335C116.559 31.1732 118.089 32.8946 120.555 32.8946C121.227 32.8954 121.896 32.8072 122.545 32.6324C122.783 32.5754 122.839 32.5127 122.902 32.2106L123.197 30.3524H125.328L125.373 34.0346Z" fill="#00467F"/>
<path d="M127.425 27.6964C127.425 23.4157 129.811 20.1553 134.545 20.1553C139.278 20.1553 141.285 23.4157 141.285 27.4342C141.285 32.131 139.017 35.1349 134.267 35.1349C129.454 35.1349 127.425 32.0341 127.425 27.6964ZM138.122 27.6166C138.122 24.1567 136.75 22.6747 134.505 22.6747C132.26 22.6747 130.605 24.1966 130.605 27.6337C130.605 31.2361 132.096 32.6725 134.38 32.6725C136.665 32.6725 138.122 31.2931 138.122 27.6166Z" fill="#00467F"/>
<path d="M142.639 23.0622C142.461 23.0788 142.282 23.0567 142.113 22.9975C141.945 22.9383 141.791 22.8433 141.662 22.7189C141.533 22.5946 141.432 22.4439 141.366 22.2769C141.3 22.11 141.27 21.9307 141.279 21.7512C141.272 21.5689 141.302 21.3871 141.368 21.2171C141.434 21.0472 141.535 20.8929 141.663 20.7638C141.791 20.6348 141.945 20.5339 142.114 20.4674C142.283 20.4009 142.464 20.3703 142.645 20.3775C142.822 20.3652 142.999 20.3907 143.166 20.4525C143.332 20.5143 143.484 20.6109 143.61 20.7359C143.736 20.8609 143.835 21.0115 143.899 21.1777C143.964 21.3438 143.992 21.5219 143.983 21.6999C143.991 21.88 143.962 22.0598 143.897 22.2279C143.832 22.396 143.734 22.5489 143.608 22.6769C143.482 22.8049 143.33 22.9052 143.164 22.9715C142.997 23.0378 142.818 23.0687 142.639 23.0622ZM142.639 20.7081C142.504 20.7023 142.369 20.7251 142.242 20.7752C142.116 20.8252 142.002 20.9013 141.907 20.9985C141.812 21.0958 141.738 21.212 141.69 21.3397C141.643 21.4674 141.622 21.6037 141.63 21.7398C141.63 22.0074 141.736 22.264 141.924 22.4532C142.112 22.6424 142.368 22.7487 142.634 22.7487C142.9 22.7487 143.155 22.6424 143.343 22.4532C143.531 22.264 143.637 22.0074 143.637 21.7398C143.65 21.6039 143.634 21.4667 143.59 21.3377C143.545 21.2087 143.473 21.0911 143.379 20.9929C143.284 20.8947 143.17 20.8184 143.043 20.7692C142.916 20.72 142.781 20.6992 142.645 20.7081H142.639ZM142.894 22.4181L142.747 22.0305C142.713 21.9279 142.685 21.8766 142.594 21.8766H142.509V22.1787C142.509 22.1787 142.509 22.2129 142.543 22.2243H142.651V22.401H142.033V22.23H142.135C142.163 22.23 142.169 22.23 142.169 22.1787V21.261C142.169 21.2268 142.169 21.2154 142.135 21.2097H142.033V21.0216H142.685C143.076 21.0216 143.184 21.2097 143.184 21.4149C143.189 21.4972 143.166 21.5789 143.12 21.6471C143.074 21.7152 143.007 21.7659 142.928 21.7911C142.961 21.801 142.991 21.8186 143.016 21.8423C143.04 21.8661 143.059 21.8955 143.07 21.9279L143.172 22.1787C143.172 22.1787 143.172 22.2129 143.229 22.2243H143.337V22.401L142.894 22.4181ZM142.611 21.6372C142.741 21.6372 142.849 21.603 142.849 21.4377C142.849 21.2724 142.747 21.2667 142.634 21.2667H142.509V21.6372H142.611Z" fill="#00467F"/>
</g>
<defs>
<clipPath id="clip0_1839_1897">
<rect width="144" height="57" fill="white"/>
</clipPath>
</defs>
</svg>
